<?xml version="1.0" ?><svg viewBox="0 0 64 64" xmlns="http://www.w3.org/2000/svg"><g data-name="Layer 4" id="Layer_4"><path d="M53,15,50.191,59.006A3.2,3.2,0,0,1,47,62H17a3.2,3.2,0,0,1-3.191-2.994L11,15Z" style="fill:#006bdb"/><path d="M17.769,34.2A25.1,25.1,0,0,0,42.836,58h7.419L53,15H16.776Z" style="fill:#0380f2"/><path d="M57,15H7V12H7a3,3,0,0,1,3-3H54a3,3,0,0,1,3,3Z" style="fill:#004180"/><path d="M26,9V8a6,6,0,0,1,6-6h0a6,6,0,0,1,6,6V9Z" style="fill:#004180"/><polygon points="17.576 52.042 17.999 62 20.001 62 19.574 51.958 17.576 52.042" style="fill:#004180"/><polygon points="18.467 23.948 18.001 15 15.999 15 16.47 24.052 18.467 23.948" style="fill:#004180"/><rect height="10" style="fill:#004180" width="2" x="31" y="52"/><rect height="9" style="fill:#004180" width="2" x="31" y="15"/><polygon points="24.576 52.042 24.999 62 27.001 62 26.574 51.958 24.576 52.042" style="fill:#004180"/><polygon points="25.467 23.948 25.001 15 22.999 15 23.47 24.052 25.467 23.948" style="fill:#004180"/><polygon points="44.426 51.958 43.999 62 46.001 62 46.424 52.042 44.426 51.958" style="fill:#004180"/><polygon points="47.53 24.052 48.001 15 45.999 15 45.533 23.948 47.53 24.052" style="fill:#004180"/><polygon points="37.426 51.958 36.999 62 39.001 62 39.424 52.042 37.426 51.958" style="fill:#004180"/><polygon points="40.53 24.052 41.001 15 38.999 15 38.533 23.948 40.53 24.052" style="fill:#004180"/><path d="M10,15H57V12a2.962,2.962,0,0,0-.184-1H13a3,3,0,0,0-3,3Z" style="fill:#004c9d"/><path d="M28.09,9H38V8a5.968,5.968,0,0,0-.881-3.119A5.985,5.985,0,0,0,28.09,9Z" style="fill:#004c9d"/><rect height="20" style="fill:#f6c77c" width="30" x="17" y="28"/><polygon points="17 48 26 33 34 43 39 37 47 48 17 48" style="fill:#de8640"/></g></svg>