<svg fill="none" height="14" viewBox="0 0 14 14" width="14" xmlns="http://www.w3.org/2000/svg"><g stroke="#bbd0ff" stroke-linecap="round" stroke-linejoin="round"><path d="m10.5 4.75h1c.1326 0 .2598.05268.3536.14645.0937.09376.1464.22094.1464.35355v7.5c0 .1326-.0527.2598-.1464.3536-.0938.0937-.221.1464-.3536.1464h-9c-.13261 0-.25979-.0527-.35355-.1464-.09377-.0938-.14645-.221-.14645-.3536v-7.5c0-.13261.05268-.25979.14645-.35355.09376-.09377.22094-.14645.35355-.14645h1"/><path d="m7 .75v8"/><path d="m5 6.75 2 2 2-2"/></g></svg>